# xmcd
#
# Track frame offsets: 
#        150
#        14509
#        29430
#        39746
#        60352
#        73159
#        88822
#        100995
#        118329
#        130267
#        143297
#        159650
#
# Disc length: 2413 seconds
#
# Revision: 0
# Processed by: cddbd v1.5.2PL0 Copyright (c) Steve Scherf et al.
# Submitted via: ExactAudioCopyFreeDBPlugin 1.0
#
DISCID=a7096b0c
DTITLE=Revolutionaires - Route 66
DYEAR=2004
DGENRE=Blues
TTITLE0=When I Get Drunk
TTITLE1=Route 66
TTITLE2=Lawdy Miss Clawdy
TTITLE3=Saturday Night Fish Fry
TTITLE4=Blue Monday
TTITLE5=Shake Your Hips
TTITLE6=The House Is Rockin'
TTITLE7=Kansas City
TTITLE8=Black Diamond
TTITLE9=Rocket 88
TTITLE10=The Walkin' Blues 
TTITLE11=Roll Over Beethoven
EXTD=
EXTT0=
EXTT1=
EXTT2=
EXTT3=
EXTT4=
EXTT5=
EXTT6=
EXTT7=
EXTT8=
EXTT9=
EXTT10=
EXTT11=
PLAYORDER=
